<mxfile host="app.diagrams.net" agent="Mozilla/5.0 (Windows NT 10.0; Win64; x64) AppleWebKit/537.36 (KHTML, like Gecko) Chrome/130.0.0.0 Safari/537.36" version="24.8.4">
  <diagram name="Page-1" id="2YBvvXClWsGukQMizWep">
    <mxGraphModel dx="1285" dy="425" grid="1" gridSize="10" guides="1" tooltips="1" connect="1" arrows="1" fold="1" page="1" pageScale="1" pageWidth="850" pageHeight="1100" math="0" shadow="0">
      <root>
        <mxCell id="0" />
        <mxCell id="1" parent="0" />
        <mxCell id="ZEUcJ9sF1bxa57TBH83O-1" value="" style="rounded=0;whiteSpace=wrap;html=1;" vertex="1" parent="1">
          <mxGeometry x="130" y="130" width="110" height="60" as="geometry" />
        </mxCell>
        <object label="Main Controller" id="ZEUcJ9sF1bxa57TBH83O-4">
          <mxCell style="text;html=1;align=center;verticalAlign=middle;whiteSpace=wrap;rounded=0;" vertex="1" parent="1">
            <mxGeometry x="155" y="145" width="60" height="30" as="geometry" />
          </mxCell>
        </object>
        <mxCell id="ZEUcJ9sF1bxa57TBH83O-6" value="" style="ellipse;whiteSpace=wrap;html=1;" vertex="1" parent="1">
          <mxGeometry x="270" y="140" width="120" height="40" as="geometry" />
        </mxCell>
        <mxCell id="ZEUcJ9sF1bxa57TBH83O-7" value="" style="endArrow=classic;html=1;rounded=0;" edge="1" parent="1">
          <mxGeometry width="50" height="50" relative="1" as="geometry">
            <mxPoint x="240" y="160" as="sourcePoint" />
            <mxPoint x="270" y="160" as="targetPoint" />
            <Array as="points">
              <mxPoint x="270" y="160" />
            </Array>
          </mxGeometry>
        </mxCell>
        <mxCell id="ZEUcJ9sF1bxa57TBH83O-8" value="Elevator Position(climb/descent rate)" style="text;html=1;align=center;verticalAlign=middle;whiteSpace=wrap;rounded=0;" vertex="1" parent="1">
          <mxGeometry x="300" y="145" width="60" height="30" as="geometry" />
        </mxCell>
        <mxCell id="ZEUcJ9sF1bxa57TBH83O-9" value="" style="shape=hexagon;perimeter=hexagonPerimeter2;whiteSpace=wrap;html=1;fixedSize=1;" vertex="1" parent="1">
          <mxGeometry x="-20" y="135" width="100" height="50" as="geometry" />
        </mxCell>
        <mxCell id="ZEUcJ9sF1bxa57TBH83O-10" value="Sensors" style="text;html=1;align=center;verticalAlign=middle;whiteSpace=wrap;rounded=0;" vertex="1" parent="1">
          <mxGeometry y="145" width="60" height="30" as="geometry" />
        </mxCell>
        <mxCell id="ZEUcJ9sF1bxa57TBH83O-12" value="" style="endArrow=classic;html=1;rounded=0;entryX=0;entryY=0;entryDx=0;entryDy=0;" edge="1" parent="1" target="ZEUcJ9sF1bxa57TBH83O-1">
          <mxGeometry width="50" height="50" relative="1" as="geometry">
            <mxPoint x="60" y="135" as="sourcePoint" />
            <mxPoint x="110" y="85" as="targetPoint" />
          </mxGeometry>
        </mxCell>
        <mxCell id="ZEUcJ9sF1bxa57TBH83O-13" value="Altitude Data" style="text;html=1;align=center;verticalAlign=middle;whiteSpace=wrap;rounded=0;" vertex="1" parent="1">
          <mxGeometry x="60" y="100" width="60" height="30" as="geometry" />
        </mxCell>
        <mxCell id="ZEUcJ9sF1bxa57TBH83O-14" value="" style="endArrow=classic;html=1;rounded=0;entryX=0;entryY=1;entryDx=0;entryDy=0;" edge="1" parent="1" target="ZEUcJ9sF1bxa57TBH83O-1">
          <mxGeometry width="50" height="50" relative="1" as="geometry">
            <mxPoint x="60" y="185" as="sourcePoint" />
            <mxPoint x="110" y="135" as="targetPoint" />
          </mxGeometry>
        </mxCell>
        <mxCell id="ZEUcJ9sF1bxa57TBH83O-15" value="Rate of Climb" style="text;html=1;align=center;verticalAlign=middle;whiteSpace=wrap;rounded=0;" vertex="1" parent="1">
          <mxGeometry x="70" y="200" width="60" height="30" as="geometry" />
        </mxCell>
        <mxCell id="ZEUcJ9sF1bxa57TBH83O-16" value="" style="whiteSpace=wrap;html=1;aspect=fixed;" vertex="1" parent="1">
          <mxGeometry x="300" y="220" width="60" height="60" as="geometry" />
        </mxCell>
        <mxCell id="ZEUcJ9sF1bxa57TBH83O-17" value="" style="endArrow=classic;html=1;rounded=0;entryX=0.5;entryY=0;entryDx=0;entryDy=0;exitX=0.5;exitY=1;exitDx=0;exitDy=0;" edge="1" parent="1" source="ZEUcJ9sF1bxa57TBH83O-6" target="ZEUcJ9sF1bxa57TBH83O-16">
          <mxGeometry width="50" height="50" relative="1" as="geometry">
            <mxPoint x="340" y="190" as="sourcePoint" />
            <mxPoint x="410" y="120" as="targetPoint" />
          </mxGeometry>
        </mxCell>
        <mxCell id="ZEUcJ9sF1bxa57TBH83O-19" value="Actuator" style="text;html=1;align=center;verticalAlign=middle;whiteSpace=wrap;rounded=0;" vertex="1" parent="1">
          <mxGeometry x="300" y="235" width="60" height="30" as="geometry" />
        </mxCell>
      </root>
    </mxGraphModel>
  </diagram>
</mxfile>
